<svg id="SvgjsSvg1001" width="288" height="288" xmlns="http://www.w3.org/2000/svg" version="1.1" xmlns:xlink="http://www.w3.org/1999/xlink" xmlns:svgjs="http://svgjs.com/svgjs"><defs id="SvgjsDefs1002"></defs><g id="SvgjsG1008" transform="matrix(1,0,0,1,0,0)"><svg xmlns="http://www.w3.org/2000/svg" enable-background="new 0 0 512 512" viewBox="0 0 512 512" width="288" height="288"><path d="M416.667,0H95.334c-8.284,0-15,6.716-15,15v482c0,6.067,3.655,11.536,9.26,13.858c1.856,0.769,3.805,1.142,5.737,1.142
			c3.903,0,7.74-1.523,10.609-4.394l150.063-150.062L406.06,507.606c4.29,4.291,10.741,5.573,16.347,3.252
			c5.605-2.322,9.26-7.791,9.26-13.858V15C431.667,6.716,424.952,0,416.667,0z" fill="#8b8b8b" class="color000 svgShape"></path></svg></g></svg>