<svg viewBox="0 -46 512 512" xmlns="http://www.w3.org/2000/svg"><path d="m422 194.101562c0 24.898438-20.097656 45-45 45l-114.402344 56.699219-12.296875 6-5.699219 3-9.101562-4.800781-100.5-60.898438c-24.902344 0-45-20.101562-45-45 0-24.902343 20.097656-45 45-45h60s64.601562-31.800781 66.699219-34.800781l.898437.597657 54.402344 34.203124h60c24.902344 0 45 20.097657 45 45zm0 0" fill="#99503d"/><path d="m512 374.101562c0 24.898438-20.097656 45-45 45h-422c-24.902344 0-45-20.101562-45-45 0-24.902343 20.097656-45 45-45h30l149.097656-30.902343 11.402344 1.800781 14.800781 1.800781 12.296875 1.796875 174.402344 25.503906h30c24.902344 0 45 20.097657 45 45zm0 0" fill="#99503d"/><path d="m377 239.101562-114.402344 56.699219v-180.902343l54.402344 34.203124h60c24.902344 0 45 20.097657 45 45 0 24.898438-20.097656 45-45 45zm0 0" fill="#804231"/><path d="m512 374.101562c0 24.898438-20.097656 45-45 45h-204.402344v-115.503906l174.402344 25.503906h30c24.902344 0 45 20.097657 45 45zm0 0" fill="#804231"/><path d="m482 284.101562c0 24.898438-20.097656 45-45 45h-362c-24.902344 0-45-20.101562-45-45 0-24.902343 20.097656-45 45-45h362c24.902344 0 45 20.097657 45 45zm0 0" fill="#c6715a"/><path d="m332 0c0 32.699219-27.398438 59.101562-60.097656 59.101562h-76.902344c-24.902344 0-45 20.097657-45 45 0 24.898438 20.097656 45 45 45h122c24.902344 0 45-20.101562 45-45v-104.101562zm0 0" fill="#c6715a"/><g fill="#b35f49"><path d="m317 149.101562h-54.402344v-90h9.304688c32.699218 0 60.097656-26.402343 60.097656-59.101562h30v104.101562c0 24.898438-20.097656 45-45 45zm0 0"/><path d="m482 284.101562c0 24.898438-20.097656 45-45 45h-174.402344v-90h174.402344c24.902344 0 45 20.097657 45 45zm0 0"/></g></svg>